<?xml version="1.0" standalone="no"?>
<!DOCTYPE svg PUBLIC "-//W3C//DTD SVG 20010904//EN"
 "http://www.w3.org/TR/2001/REC-SVG-20010904/DTD/svg10.dtd">
<svg version="1.0" xmlns="http://www.w3.org/2000/svg"
 width="410.000000pt" height="410.000000pt" viewBox="0 0 410.000000 410.000000"
 preserveAspectRatio="xMidYMid meet">
<metadata>
Created by potrace 1.11, written by Peter Selinger 2001-2013
</metadata>
<g transform="translate(0.000000,410.000000) scale(0.100000,-0.100000)"
fill="#000000" stroke="none">
<path d="M1940 4076 c0 -8 -11 -27 -24 -42 -18 -22 -32 -28 -67 -28 -40 -1
-46 2 -67 35 -29 44 -54 42 -68 -4 -5 -20 -17 -33 -29 -36 -11 -2 -24 -10 -28
-17 -15 -26 -91 1 -102 35 -9 31 -39 18 -46 -20 -9 -42 -51 -79 -89 -79 -16 0
-42 11 -58 25 -43 36 -58 32 -53 -12 3 -26 -31 -75 -62 -88 -32 -13 -66 -6
-96 23 -21 21 -36 8 -36 -32 -1 -79 -91 -133 -144 -87 -33 28 -52 13 -41 -34
6 -25 3 -41 -11 -64 -31 -51 -71 -63 -121 -37 -35 19 -53 1 -39 -37 15 -39 9
-67 -21 -99 -24 -25 -34 -29 -65 -26 -21 3 -45 7 -53 9 -16 4 -22 -27 -10 -46
22 -32 19 -62 -10 -97 -31 -38 -73 -53 -103 -37 -25 14 -34 -16 -15 -50 38
-64 -6 -141 -81 -141 -26 0 -41 -5 -45 -16 -11 -29 -6 -151 9 -200 8 -27 15
-51 15 -54 7 -53 74 -176 154 -286 11 -14 -11 -47 -25 -38 -24 15 -27 -11 -5
-54 24 -49 43 -102 51 -143 3 -13 8 -37 11 -54 4 -16 8 -46 10 -65 15 -166 13
-162 58 -159 50 5 59 -6 51 -65 -4 -28 -9 -69 -11 -91 -13 -106 -61 -236 -106
-285 -18 -19 -18 -20 18 -35 20 -8 39 -15 43 -15 4 0 12 -5 19 -12 8 -8 4 -20
-18 -48 l-29 -36 37 -4 c20 -2 96 -4 167 -4 106 0 141 4 188 21 52 18 59 19
66 4 5 -9 6 -22 4 -28 -3 -7 2 -13 10 -13 12 0 11 -12 -8 -67 -110 -320 -198
-579 -200 -588 -1 -5 -7 -23 -13 -38 -7 -16 -12 -31 -12 -34 0 -3 -18 -57 -41
-120 -22 -64 -42 -123 -44 -132 -2 -9 -15 -47 -29 -85 -14 -38 -23 -72 -21
-77 3 -4 2 -9 -3 -11 -8 -3 -64 -158 -56 -158 2 0 23 21 46 46 107 116 276
118 331 4 l12 -25 445 -2 c245 -1 457 -3 472 -5 18 -2 37 7 61 29 49 44 111
74 169 80 56 6 82 -10 91 -55 3 -15 14 -37 25 -50 19 -22 20 -22 345 -22 l326
0 22 -33 c33 -46 49 -56 90 -57 26 0 49 10 80 33 67 52 77 55 177 55 95 0 186
17 176 33 -3 5 -1 9 5 9 6 0 19 12 28 27 16 24 18 54 19 243 1 210 1 216 -24
268 -14 28 -29 52 -33 52 -4 0 -10 9 -14 19 -6 21 -101 98 -116 94 -5 -2 -9 1
-9 6 0 5 -22 18 -49 30 -28 11 -52 25 -55 30 -4 5 19 33 49 62 30 29 53 55 50
57 -3 3 2 10 11 16 8 6 16 19 17 28 2 9 8 22 13 29 11 14 35 91 50 163 7 31
15 41 35 47 15 4 33 3 40 -2 24 -14 27 22 7 58 -31 51 -30 80 4 114 16 16 38
30 49 31 10 0 25 1 32 2 20 2 25 30 7 46 -59 53 -38 140 41 166 41 14 48 36
16 53 -33 18 -48 69 -32 108 12 29 59 70 80 71 12 1 20 32 8 32 -5 0 -22 12
-38 28 -49 44 -39 116 20 148 38 20 42 40 10 58 -46 26 -66 61 -59 101 6 34
45 83 62 77 8 -2 11 5 9 20 -3 14 -12 24 -25 26 -24 4 -71 48 -73 68 -1 8 -2
20 -3 27 -2 15 22 56 47 79 24 22 15 48 -15 48 -44 1 -88 54 -82 98 7 41 9 46
34 68 29 27 21 40 -30 49 -38 7 -70 30 -70 52 0 7 -4 13 -9 13 -15 0 -3 52 19
82 27 37 20 57 -17 53 -45 -5 -78 18 -101 69 -11 25 -10 34 8 68 11 22 18 43
15 48 -3 5 -25 8 -50 7 -36 -2 -49 3 -71 25 -31 30 -40 93 -18 116 11 10 11
18 3 33 -9 18 -13 19 -32 7 -50 -32 -136 24 -129 82 2 14 4 33 5 43 1 9 6 17
11 17 15 0 -3 14 -21 16 -10 2 -22 -1 -28 -5 -27 -21 -56 -19 -86 6 -50 42
-53 63 -20 153 16 44 28 80 26 80 -2 0 9 32 25 70 16 39 28 70 26 70 -6 0 -76
-118 -76 -129 0 -6 -4 -11 -8 -11 -5 0 -19 -19 -31 -42 -38 -74 -46 -81 -83
-74 -18 3 -38 7 -45 8 -7 1 -10 5 -7 9 2 4 -3 12 -13 17 -12 7 -17 23 -17 53
0 53 -13 65 -43 38 -13 -13 -36 -21 -58 -22 -49 -1 -95 46 -95 98 0 35 -20 49
-36 24 -3 -6 -20 -19 -36 -29 -25 -15 -36 -16 -61 -8 -41 15 -65 41 -69 75 -4
40 -27 44 -57 11 -32 -35 -75 -44 -107 -23 -24 16 -57 69 -48 77 3 3 -4 8 -16
11 -13 3 -24 -1 -30 -14 -6 -10 -7 -19 -3 -19 4 0 -7 -9 -26 -21 -43 -26 -90
-22 -116 11 -11 13 -20 27 -20 30 -1 26 -45 42 -45 16z"/>
</g>
</svg>
