<?xml version="1.0" standalone="no"?>
<!DOCTYPE svg PUBLIC "-//W3C//DTD SVG 20010904//EN"
 "http://www.w3.org/TR/2001/REC-SVG-20010904/DTD/svg10.dtd">
<svg version="1.0" xmlns="http://www.w3.org/2000/svg"
 width="384.000000pt" height="384.000000pt" viewBox="0 0 384.000000 384.000000"
 preserveAspectRatio="xMidYMid meet">
<metadata>
Created by potrace 1.11, written by Peter Selinger 2001-2013
</metadata>
<g transform="translate(0.000000,384.000000) scale(0.100000,-0.100000)"
fill="#000000" stroke="none">
<path d="M1806 3796 c-18 -34 -40 -46 -84 -46 -24 0 -72 40 -72 61 0 6 -7 8
-16 5 -9 -3 -18 -6 -20 -6 -2 0 -4 -8 -4 -17 -1 -24 -26 -56 -38 -49 -6 3 -12
1 -14 -6 -8 -23 -70 -13 -94 15 -22 26 -57 28 -52 3 4 -22 -13 -55 -38 -71
-32 -21 -83 -13 -109 15 -22 25 -43 26 -41 3 4 -85 -70 -138 -128 -92 -36 28
-57 19 -54 -24 4 -69 -90 -119 -140 -73 -15 13 -21 14 -29 4 -6 -7 -7 -22 -3
-33 8 -22 -6 -73 -26 -92 -21 -21 -60 -25 -90 -10 -24 12 -31 12 -41 2 -6 -7
-9 -15 -6 -18 19 -20 2 -124 -18 -111 -5 3 -9 -1 -9 -8 0 -16 -58 -22 -79 -9
-25 16 -43 -13 -29 -46 20 -49 17 -61 -26 -105 -23 -22 -31 -25 -61 -18 -33 7
-39 5 -36 -12 0 -5 -4 -8 -11 -8 -6 0 -3 -9 7 -20 23 -26 26 -43 13 -80 -12
-36 -44 -57 -85 -55 -22 0 -35 -5 -38 -15 -4 -15 -8 -131 -5 -140 2 -3 4 -14
6 -25 7 -45 22 -93 44 -140 13 -27 24 -54 24 -58 1 -4 8 -12 16 -17 8 -5 12
-10 7 -10 -7 0 20 -48 33 -60 3 -3 16 -20 29 -37 24 -35 21 -53 -8 -53 -27 0
-33 -11 -18 -34 18 -26 55 -131 61 -171 2 -16 5 -30 6 -30 2 0 6 -29 14 -105
11 -110 9 -105 50 -105 42 0 58 -18 50 -56 -3 -13 -7 -42 -10 -64 -8 -74 -14
-109 -29 -152 -20 -58 -55 -125 -71 -138 -16 -12 -5 -35 18 -39 8 -1 27 -10
43 -20 l27 -18 -28 -29 c-15 -16 -25 -31 -22 -34 3 -3 61 -8 129 -12 101 -4
136 -2 189 12 78 21 104 23 106 10 0 -5 4 -18 9 -28 4 -10 3 -36 -4 -58 -6
-21 -11 -41 -11 -44 0 -3 -7 -19 -15 -35 -9 -17 -13 -30 -10 -30 3 0 0 -10 -7
-22 -6 -13 -13 -28 -14 -34 -2 -10 -39 -121 -52 -154 -3 -8 -6 -19 -7 -25 0
-5 -3 -14 -6 -20 -6 -9 -50 -138 -55 -160 -2 -5 -21 -62 -43 -125 -23 -63 -41
-116 -41 -117 -1 -6 -13 -41 -27 -78 -8 -22 -16 -47 -18 -55 -2 -8 -11 -35
-20 -60 -9 -25 -18 -53 -20 -62 -2 -9 -9 -26 -15 -37 -6 -12 -8 -21 -4 -21 3
0 1 -7 -6 -15 -7 -8 -9 -15 -5 -15 4 0 3 -6 -2 -13 -6 -6 -13 -23 -16 -37 -6
-22 -2 -21 32 15 52 55 80 76 102 78 10 1 19 4 19 7 0 11 95 11 121 1 29 -11
69 -45 69 -58 0 -6 8 -17 18 -26 14 -13 45 -15 198 -12 100 1 187 5 193 9 6 4
11 3 11 -1 0 -5 16 -8 35 -8 19 0 35 4 35 8 0 5 4 6 10 2 5 -3 100 -8 210 -10
l201 -5 27 30 c53 57 185 96 217 63 14 -13 19 -28 16 -45 0 -5 4 -8 11 -8 6 0
9 -3 5 -6 -3 -3 3 -16 14 -28 20 -23 21 -23 322 -22 283 1 302 0 317 -18 66
-81 99 -86 183 -26 l57 41 102 1 c57 0 114 5 127 10 28 10 71 53 72 71 1 22 7
49 12 54 3 2 1 17 -3 33 -4 16 -6 31 -2 34 7 8 7 69 -1 89 -4 10 -2 17 3 17 5
0 5 12 0 29 -4 16 -6 32 -3 35 3 3 6 30 5 60 0 60 -40 162 -66 172 -9 3 -14
10 -11 14 3 5 -19 25 -47 46 -29 21 -56 42 -59 47 -3 5 -9 9 -12 8 -13 -1 -82
32 -89 42 -3 5 8 22 25 36 48 39 57 49 57 60 0 6 4 11 9 11 5 0 14 14 20 30 5
17 15 30 22 30 7 0 10 3 7 6 -4 3 0 21 8 40 8 19 11 34 8 34 -4 0 -1 7 6 15 7
8 10 15 7 15 -3 0 1 21 7 48 12 45 14 47 47 47 48 0 62 21 33 52 -22 24 -24
41 -9 96 5 17 14 27 26 27 10 0 19 4 19 8 0 4 12 9 27 10 38 3 44 20 17 49
-27 29 -30 43 -21 97 4 19 39 47 67 53 33 6 42 39 15 50 -18 6 -41 51 -39 73
4 38 18 60 45 72 16 7 29 17 29 21 0 5 5 5 10 2 24 -15 7 21 -24 50 -29 27
-34 39 -32 70 1 30 9 44 41 71 l40 34 -45 39 c-25 22 -41 40 -36 41 5 0 4 6
-2 13 -5 7 -6 21 -2 32 10 24 47 65 60 65 5 0 8 9 7 20 -1 18 -9 24 -28 22
-16 -2 -58 48 -62 73 -4 33 16 80 38 89 8 3 15 14 15 25 0 13 -9 21 -34 25
-19 4 -40 16 -49 29 -16 26 -27 87 -15 87 4 0 8 6 8 14 0 8 7 17 16 20 19 7
15 52 -6 48 -51 -11 -104 47 -93 102 3 17 12 35 20 39 7 4 13 17 13 27 0 19
-11 23 -55 21 -28 -1 -50 19 -68 61 -14 33 -14 38 4 67 24 40 17 61 -19 52
-39 -11 -78 6 -95 41 -15 31 -14 75 3 92 13 13 0 36 -21 36 -10 0 -19 -4 -19
-8 0 -18 -66 2 -88 27 -20 22 -23 34 -18 74 4 37 2 49 -10 54 -8 3 -20 1 -27
-6 -18 -18 -65 -13 -88 12 -33 35 -40 61 -24 104 14 40 21 62 25 78 1 6 6 16
12 23 6 6 7 12 3 12 -4 0 0 11 9 25 9 14 14 25 11 25 -3 0 1 16 10 35 8 20 11
33 6 31 -5 -3 -14 -19 -21 -36 -7 -16 -17 -30 -22 -30 -5 0 -7 -4 -4 -9 4 -5
1 -11 -4 -13 -6 -2 -12 -11 -13 -19 -2 -9 -9 -23 -17 -31 -8 -8 -24 -31 -35
-51 -11 -21 -28 -40 -38 -43 -48 -15 -114 53 -100 104 7 28 -23 42 -40 18 -7
-9 -28 -18 -47 -21 -50 -6 -90 29 -93 82 -3 42 -21 50 -48 21 -9 -9 -27 -22
-41 -27 -37 -14 -95 27 -103 73 -8 39 -25 41 -55 6 -22 -26 -72 -35 -103 -19
-17 10 -42 55 -39 72 1 4 -5 7 -13 7 -8 0 -17 0 -20 0 -3 0 -6 -3 -7 -7 -1 -5
-12 -19 -24 -31 -41 -45 -132 -19 -137 39 -2 30 -31 22 -51 -15z"/>
</g>
</svg>
